# AST/ASF file generated using VICON BodyLanguage
# -----------------------------------------------
:version 1.10
:name VICON
:units
  mass 1.0
  length 0.45
  angle deg
:documentation
   .ast/.asf automatically generated from VICON data using
   VICON BodyBuilder and BodyLanguage model FoxedUp or BRILLIANT.MOD
:root
   order TX TY TZ RX RY RZ
   axis XYZ
   position 0 0 0  
   orientation 0 0 0 
:bonedata
  begin
     id 1 
     name lhipjoint
     direction 0.627457 -0.725269 0.283342 
     length 2.53237 
     axis 0 0 0  XYZ
  end
  begin
     id 2 
     name lfemur
     direction 0.34202 -0.939693 0  
     length 7.32496  
     axis 0 0 20  XYZ
    dof rx ry rz
    limits (-160.0 20.0)
           (-70.0 70.0)
           (-60.0 70.0)
  end
  begin
     id 3 
     name ltibia
     direction 0.34202 -0.939693 0   
     length 7.69674   
     axis 0 0 20   XYZ
    dof rx
    limits (-10.0 170.0)
  end
  begin
     id 4 
     name lfoot
     direction 0.127289 -0.349722 0.928166   
     length 1.8612   
     axis -90 7.62852e-016 20   XYZ
    dof rx rz
    limits (-45.0 90.0)
           (-70.0 20.0)
  end
  begin
     id 5 
     name ltoes
     direction 1.53561e-011 -4.21864e-011 1   
     length 0.925608   
     axis -90 7.62852e-016 20   XYZ
    dof rx
    limits (-90.0 20.0)
  end
  begin
     id 6 
     name rhipjoint
     direction -0.609094 -0.738725 0.288599   
     length 2.48624  
     axis 0 0 0  XYZ 
  end
  begin
     id 7 
     name rfemur
     direction -0.34202 -0.939693 0   
     length 7.44259   
     axis 0 0 -20   XYZ
    dof rx ry rz
    limits (-160.0 20.0)
           (-70.0 70.0)
           (-70.0 60.0)
  end
  begin
     id 8 
     name rtibia
     direction -0.34202 -0.939693 0   
     length 7.7781   
     axis 0 0 -20   XYZ
    dof rx
    limits (-10.0 170.0)
 end
 begin
     id 9 
     name rfoot
     direction -0.107015 -0.294021 0.949789   
     length 2.14741  
     axis -90 -7.62852e-016 -20   XYZ
    dof rx rz
    limits (-45.0 90.0)
           (-20.0 70.0)
  end
  begin
     id 10 
     name rtoes
     direction -1.53497e-011 -4.21924e-011 1   
     length 1.0706   
     axis -90 -7.62852e-016 -20   XYZ
    dof rx
    limits (-90.0 20.0)
  end
  begin
     id 11 
     name lowerback
     direction -0.0142066 0.998112 -0.0597545   
     length 1.86627   
     axis 0 0 0   XYZ
    dof rx ry rz
    limits (-20.0 45.0)
           (-30.0 30.0)
           (-30.0 30.0)
  end
  begin
     id 12 
     name upperback
     direction 0.00547294 0.999744 0.0219437   
     length 1.86272   
     axis 0 0 0   XYZ
    dof rx ry rz
    limits (-20.0 45.0)
           (-30.0 30.0)
           (-30.0 30.0)
  end
  begin
     id 13 
     name thorax
     direction 0.0116162 0.998704 0.0495538   
     length 1.8703   
     axis 0 0 0   XYZ
    dof rx ry rz
    limits (-20.0 45.0)
           (-30.0 30.0)
           (-30.0 30.0)
  end
  begin
     id 14 
     name lowerneck
     direction -0.0106574 0.998739 0.0490586   
     length 1.8074   
     axis 0 0 0   XYZ
    dof rx ry rz
    limits (-20.0 45.0)
           (-30.0 30.0)
           (-30.0 30.0)
  end
  begin
     id 15 
     name upperneck
     direction 0.030527 0.976587 -0.212944   
     length 1.80681   
     axis 0 0 0   XYZ
    dof rx ry rz
    limits (-20.0 45.0)
           (-30.0 30.0)
           (-30.0 30.0)
  end
  begin
     id 16
     name head
     direction 0.00869225 0.997035 -0.0764531  
     length 1.8313  
     axis 0 0 0   XYZ
    dof rx ry rz
    limits (-20.0 45.0)
           (-30.0 30.0)
           (-30.0 30.0)
  end
  begin
     id 17 
     name lclavicle
     direction 0.915958 0.399447 0.0382386  
     length 3.78965  
     axis 0 0 0   XYZ
    dof ry rz
    limits (-20.0 10.0)
           (0.0 20.0)
  end
  begin
     id 18 
     name lhumerus
     direction 1 -4.48967e-011 3.19303e-027   
     length 4.78095   
     axis -180 -30 -90   XYZ
    dof rx ry rz
    limits (-60.0 90.0)
           (-90.0 90.0)
           (-90.0 90.0)
  end
  begin
     id 19
     name lradius
     direction 1 -4.48967e-011 -3.77974e-027   
     length 3.58615   
     axis -180 -30 -90   XYZ
    dof rx
    limits (-10.0 170.0)
  end
  begin
     id 20
     name lwrist
     direction 1 -4.48927e-011 1.2807e-027   
     length 1.79307   
     axis 1.91374e-015 90 90   XYZ
    dof ry
    limits (-180.0 0.0)
 end
  begin
     id 21 
     name lhand
     direction 1 -4.49036e-011 2.5614e-027   
     length 0.659812   
     axis -1.63439e-015 90 90   XYZ
    dof rx rz
    limits (-90.0 90.0)
           (-45.0 45.0)
  end
  begin
     id 22 
     name lfingers
     direction 1 -4.49052e-011 5.1228e-027   
     length 0.531957   
     axis -3.26879e-015 90 90   XYZ
    dof rx
    limits (0.0 90.0)
  end
  begin
     id 23
     name lthumb
     direction 0.707107 -6.35012e-011 0.707107   
     length 0.763787   
     axis -90 45 2.85299e-015   XYZ
    dof rx rz
    limits (-45.0 45.0)
           (-45.0 45.0)
  end
  begin
     id 24 
     name rclavicle
     direction -0.895351 0.435135 0.0948887   
     length 3.70497  
     axis 0 0 0   XYZ 
    dof ry rz
    limits (-10.0 20.0)
           (-20.0 0.0)
  end
  begin
     id 25 
     name rhumerus
     direction -1 -4.48971e-011 2.38946e-027  
     length 4.48913   
     axis -180 30 90   XYZ
    dof rx ry rz
    limits (-90.0 60.0)
           (-90.0 90.0)
           (-90.0 90.0)
  end
  begin
     id 26 
     name rradius
     direction -1 -4.4895e-011 4.38668e-027   
     length 3.7051   
     axis -180 30 90   XYZ
    dof rx
    limits (-10.0 170.0)
  end
  begin
     id 27 
     name rwrist
     direction -1 -4.49007e-011 1.2807e-027   
     length 1.85255   
     axis 1.91374e-015 -90 -90   XYZ
    dof ry
    limits (-180.0 0.0)
  end
  begin
     id 28
     name rhand
     direction -1 -4.48851e-011 2.5614e-027   
     length 0.449136   
     axis -1.63439e-015 -90 -90   XYZ
    dof rx rz
    limits (-90.0 90.0)
           (-45.0 45.0)
  end
  begin
     id 29
     name rfingers
     direction -1 -4.49128e-011 5.1228e-027   
     length 0.362105   
     axis -3.26879e-015 -90 -90   XYZ
    dof rx
    limits (0.0 90.0)
  end
  begin
     id 30
     name rthumb
     direction -0.707107 -6.34851e-011 0.707107   
     length 0.519912   
     axis -90 -45 -2.85299e-015   XYZ
    dof rx rz
    limits (-45.0 45.0)
           (-45.0 45.0)
  end
:hierarchy
  begin
    root lhipjoint rhipjoint lowerback
    lhipjoint lfemur
    lfemur ltibia
    ltibia lfoot
    lfoot ltoes
    rhipjoint rfemur
    rfemur rtibia
    rtibia rfoot
    rfoot rtoes
    lowerback upperback
    upperback thorax
    thorax lowerneck lclavicle rclavicle
    lowerneck upperneck
    upperneck head
    lclavicle lhumerus
    lhumerus lradius
    lradius lwrist
    lwrist lhand lthumb
    lhand lfingers
    rclavicle rhumerus
    rhumerus rradius
    rradius rwrist
    rwrist rhand rthumb
    rhand rfingers
  end

#!OML:ASF I:\Actors\actors\Patient Classification 2\Patient 1\Session 1\actor1.ASF
:FULLY-SPECIFIED
:DEGREES
80
root -0.567721 18.71 5.85587 4.23373 -3.34189 -0.484432
lowerback 1.02919 1.0454 -1.65755
upperback -3.1702 1.35307 0.203357
thorax -3.88245 0.728527 1.07788
lowerneck -11.2162 -1.99352 -2.0321
upperneck 23.4029 -3.00334 2.56843
head 9.26906 -1.30996 0.886346
rclavicle 2.92897e-015 -1.99779e-014
rhumerus -49.3726 -0.848311 -87.1127
rradius 43.0238
rwrist 19.7971
rhand -6.90074 -36.9098
rfingers 7.12502
rthumb 18.9663 -66.0051
lclavicle 2.92897e-015 -1.99779e-014
lhumerus -40.619 1.62424 89.1701
lradius 34.727
lwrist -10.4461
lhand -4.47319 -26.325
lfingers 7.12502
lthumb 21.2995 2.52459
rfemur 3.33857 5.56219 13.3698
rtibia -1.59028e-015
rfoot -16.8072 -11.6166
rtoes -6.67297
lfemur -5.28309 -7.03208 -13.9419
ltibia 19.9961
lfoot -23.2099 14.8367
ltoes -55.2576
81
root -0.567772 18.7101 5.85676 4.24633 -3.34025 -0.459096
lowerback 0.994472 1.04825 -1.693
upperback -3.16964 1.35616 0.195385
thorax -3.86301 0.730886 1.09006
lowerneck -11.2486 -1.99566 -1.99706
upperneck 23.4335 -3.00287 2.52237
head 9.28455 -1.31112 0.864419
rclavicle 3.03457e-015 -2.3059e-014
rhumerus -49.3653 -0.861894 -87.1219
rradius 43.0168
rwrist 19.8198
rhand -6.95108 -36.9144
rfingers 7.12502
rthumb 18.9179 -66.0145
lclavicle 3.03457e-015 -2.3059e-014
lhumerus -40.6247 1.61787 89.1728
lradius 34.7347
lwrist -10.4321
lhand -4.47346 -26.3643
lfingers 7.12502
lthumb 21.2992 2.48524
rfemur 3.32574 5.55703 13.3402
rtibia 6.36111e-015
rfoot -16.7698 -11.6171
rtoes -6.89451
lfemur -5.29063 -7.09939 -13.9754
ltibia 19.9935
lfoot -23.2543 14.8868
ltoes -55.2537
82
root -0.567715 18.7102 5.85701 4.24562 -3.3304 -0.448669
lowerback 1.01032 1.04463 -1.70666
upperback -3.18165 1.35049 0.193643
thorax -3.88458 0.72869 1.09572
lowerneck -11.2589 -1.9866 -1.97562
upperneck 23.445 -2.98821 2.49523
head 9.28936 -1.30515 0.85307
rclavicle -4.7522e-016 -1.60022e-014
rhumerus -49.3859 -0.862272 -87.1292
rradius 43.0209
rwrist 19.8373
rhand -6.96803 -36.9492
rfingers 7.12502
rthumb 18.9016 -66.0508
lclavicle -4.7522e-016 -1.60022e-014
lhumerus -40.6331 1.67033 89.1484
lradius 34.7176
lwrist -10.5058
lhand -4.45786 -26.3778
lfingers 7.12502
lthumb 21.3142 2.47005
rfemur 3.33034 5.54648 13.3281
rtibia -6.36111e-015
rfoot -16.7439 -11.6191
rtoes -6.94949
lfemur -5.29152 -7.13576 -13.9892
ltibia 19.9955
lfoot -23.2624 14.9028
ltoes -55.3089
83
root -0.568121 18.7104 5.85596 4.25452 -3.32863 -0.483105
lowerback 1.0285 1.04988 -1.66462
upperback -3.19485 1.35846 0.196511
thorax -3.90784 0.73167 1.07427
lowerneck -11.2152 -1.97871 -2.00894
upperneck 23.3913 -2.98147 2.5459
head 9.26353 -1.30015 0.877186
rclavicle -8.60365e-015 -7.85199e-015
rhumerus -49.3975 -0.884692 -87.1263
rradius 43.0193
rwrist 19.8466
rhand -6.98374 -36.9821
rfingers 7.12502
rthumb 18.8865 -66.0852
lclavicle -8.60365e-015 -7.85199e-015
lhumerus -40.6594 1.67581 89.1316
lradius 34.7312
lwrist -10.5732
lhand -4.42045 -26.3424
lfingers 7.12502
lthumb 21.3502 2.50146
rfemur 3.31565 5.54656 13.3685
rtibia -7.95139e-015
rfoot -16.7126 -11.6519
rtoes -6.89124
lfemur -5.30899 -7.04478 -13.9384
ltibia 19.9962
lfoot -23.2187 14.8289
ltoes -55.3261
84
root -0.568623 18.7105 5.8553 4.28026 -3.34389 -0.510183
lowerback 1.0028 1.05445 -1.64153
upperback -3.20042 1.3658 0.199693
thorax -3.89877 0.734644 1.06472
lowerneck -11.1831 -1.96643 -1.9664
upperneck 23.3453 -2.9614 2.50094
head 9.23947 -1.29243 0.857074
rclavicle 6.25861e-015 -7.45443e-015
rhumerus -49.3935 -0.87496 -87.1407
rradius 43.0286
rwrist 19.8202
rhand -6.97625 -37.0287
rfingers 7.12502
rthumb 18.8937 -66.1311
lclavicle 6.25861e-015 -7.45443e-015
lhumerus -40.673 1.6776 89.1134
lradius 34.7407
lwrist -10.6221
lhand -4.39865 -26.3293
lfingers 7.12502
lthumb 21.3711 2.51211
rfemur 3.27973 5.56099 13.3973
rtibia 3.18055e-015
rfoot -16.7145 -11.6617
rtoes -6.83596
lfemur -5.34152 -6.9631 -13.8971
ltibia 20.0017
lfoot -23.2138 14.7655
ltoes -55.2769
85
root -0.568754 18.7106 5.85552 4.29874 -3.35387 -0.491368
lowerback 0.978996 1.05121 -1.66937
upperback -3.20664 1.36083 0.194748
thorax -3.89218 0.732946 1.07583
lowerneck -11.1777 -1.95518 -1.94075
upperneck 23.3404 -2.94534 2.4777
head 9.23554 -1.28527 0.846631
rclavicle -1.57475e-015 -5.56597e-015
rhumerus -49.4051 -0.844467 -87.1606
rradius 43.0557
rwrist 19.7828
rhand -6.92378 -37.0574
rfingers 7.12502
rthumb 18.9441 -66.1549
lclavicle -1.57475e-015 -5.56597e-015
lhumerus -40.6669 1.71891 89.0877
lradius 34.7143
lwrist -10.6655
lhand -4.39142 -26.3233
lfingers 7.12502
lthumb 21.378 2.51737
rfemur 3.25806 5.56718 13.3724
rtibia 7.95139e-015
rfoot -16.7652 -11.6218
rtoes -6.79525
lfemur -5.36117 -6.99968 -13.9212
ltibia 20.0103
lfoot -23.246 14.7927
ltoes -55.2741
86
root -0.568355 18.7109 5.85594 4.30388 -3.34747 -0.481329
lowerback 0.973866 1.04957 -1.67847
upperback -3.21138 1.35844 0.19507
thorax -3.89436 0.732092 1.08141
lowerneck -11.1732 -1.95609 -2.00001
upperneck 23.3307 -2.9501 2.54435
head 9.23343 -1.28561 0.878988
rclavicle 1.1427e-014 0
rhumerus -49.4147 -0.846135 -87.1471
rradius 43.0575
rwrist 19.8062
rhand -6.87188 -37.0326
rfingers 7.12502
rthumb 18.994 -66.1251
lclavicle 1.1427e-014 0
lhumerus -40.6752 1.74575 89.0852
lradius 34.707
lwrist -10.7052
lhand -4.41579 -26.3237
lfingers 7.12502
lthumb 21.3546 2.51959
rfemur 3.25384 5.55938 13.3596
rtibia -1.27222e-014
rfoot -16.7846 -11.6011
rtoes -6.66709
lfemur -5.36152 -7.10491 -13.9434
ltibia 20.0086
lfoot -23.2586 14.9006
ltoes -55.3399
87
root -0.568133 18.7112 5.85681 4.2865 -3.34071 -0.47782
lowerback 0.974329 1.04887 -1.69319
upperback -3.1976 1.35745 0.204202
thorax -3.8809 0.732021 1.09925
lowerneck -11.162 -1.95121 -2.03463
upperneck 23.2968 -2.94268 2.57564
head 9.22033 -1.28208 0.896451
rclavicle 1.59245e-014 -3.77691e-015
rhumerus -49.4018 -0.846412 -87.1258
rradius 43.0571
rwrist 19.843
rhand -6.80723 -37.0426
rfingers 7.12502
rthumb 19.0562 -66.129
lclavicle 1.59245e-014 -3.77691e-015
lhumerus -40.6958 1.73562 89.1088
lradius 34.7454
lwrist -10.692
lhand -4.45046 -26.3293
lfingers 7.12502
lthumb 21.3213 2.51782
rfemur 3.28118 5.55439 13.358
rtibia -2.22639e-014
rfoot -16.7734 -11.6138
rtoes -6.49025
lfemur -5.33481 -7.16888 -13.9556
ltibia 20.002
lfoot -23.2497 14.9751
ltoes -55.3853
88
root -0.568173 18.7108 5.85721 4.27506 -3.34421 -0.475339
lowerback 0.97472 1.04723 -1.7171
upperback -3.18167 1.35503 0.215219
thorax -3.86542 0.731514 1.12427
lowerneck -11.1686 -1.95058 -2.0362
upperneck 23.2744 -2.93757 2.56265
head 9.21347 -1.28128 0.892743
rclavicle 9.64727e-015 0
rhumerus -49.388 -0.820481 -87.1219
rradius 43.072
rwrist 19.8365
rhand -6.81085 -37.0017
rfingers 7.12502
rthumb 19.0527 -66.0885
lclavicle 9.64727e-015 0
lhumerus -40.6836 1.73705 89.1238
lradius 34.752
lwrist -10.6623
lhand -4.45531 -26.3585
lfingers 7.12502
lthumb 21.3167 2.48913
rfemur 3.29776 5.55898 13.3567
rtibia 1.27222e-014
rfoot -16.7533 -11.6182
rtoes -6.57316
lfemur -5.31766 -7.18228 -13.9606
ltibia 20.0026
lfoot -23.2463 14.9762
ltoes -55.3383
89
root -0.568316 18.7101 5.85673 4.28857 -3.33962 -0.481329
lowerback 0.975986 1.04627 -1.71872
upperback -3.18601 1.35377 0.218726
thorax -3.87073 0.731067 1.12876
lowerneck -11.1925 -1.96215 -2.05043
upperneck 23.2888 -2.95203 2.5674
head 9.2237 -1.28848 0.894949
rclavicle -1.99344e-014 1.60022e-014
rhumerus -49.397 -0.800788 -87.1308
rradius 43.0968
rwrist 19.7818
rhand -6.89748 -36.909
rfingers 7.12502
rthumb 18.9694 -66.004
lclavicle -1.99344e-014 1.60022e-014
lhumerus -40.6656 1.7363 89.1254
lradius 34.7322
lwrist -10.6565
lhand -4.43356 -26.371
lfingers 7.12502
lthumb 21.3376 2.47425
rfemur 3.27713 5.5534 13.3642
rtibia 7.95139e-015
rfoot -16.7413 -11.6199
rtoes -6.75505
lfemur -5.33338 -7.17021 -13.9486
ltibia 20.002
lfoot -23.2433 14.9441
ltoes -55.2441
